<?xml version="1.0" encoding="UTF-8" standalone="no"?> <!-- Created with Vectornator for iOS (http://vectornator.io/) --><!DOCTYPE svg PUBLIC "-//W3C//DTD SVG 1.1//EN" "http://www.w3.org/Graphics/SVG/1.1/DTD/svg11.dtd">
<svg viewBox="0 0 700 700" height="100%" style="fill-rule:nonzero;clip-rule:evenodd;stroke-linecap:round;stroke-linejoin:round;" xmlns:vectornator="http://vectornator.io" xml:space="preserve" width="100%" xmlns="http://www.w3.org/2000/svg" xmlns:xlink="http://www.w3.org/1999/xlink" version="1.1">
<metadata>
<vectornator:setting key="WDIsolateActiveLayer" value="false"/>
<vectornator:setting value="Points" key="WDUnits"/>
<vectornator:setting key="WDRulersVisible" value="true"/>
<vectornator:setting value="false" key="WDSnapToGrid"/>
<vectornator:setting value="false" key="WDCMYKEnabledKey"/>
<vectornator:setting key="VNPencilOnly" value="false"/>
<vectornator:setting key="UndoHistoryDisabled" value="false"/>
<vectornator:setting value="false" key="WDSnapToEdges"/>
<vectornator:setting value="true" key="VNDimensionsVisible"/>
<vectornator:setting key="IsTimeLapseWatermarkDisabled" value="false"/>
<vectornator:setting value="false" key="WDSnapToPoints"/>
<vectornator:setting key="WDDisplayWhiteBackground" value="false"/>
<vectornator:setting key="WDOutlineMode" value="false"/>
<vectornator:setting value="false" key="WDDynamicGuides"/>
<vectornator:setting value="true" key="WDGuidesVisible"/>
<vectornator:setting key="VNSnapToGuides" value="true"/>
</metadata>
<defs/>
<g vectornator:layerName="Untitled" id="Untitled">
<g opacity="1">
<path d="M350+415.028C348.879+415.028+347.762+415.028+347.199+414.47L73.3592+274.47C69.9998+272.79+68.8787+268.868+70.5584+266.071C72.2381+262.712+76.16+261.591+78.9568+263.271L349.997+401.591L620.477+263.271C623.836+261.591+627.196+262.712+628.875+266.071C630.555+269.431+629.434+272.79+626.074+274.47L352.234+414.47C352.234+415.032+351.117+415.032+349.996+415.032L350+415.028Z" fill="#000000" opacity="1"/>
<path opacity="1" fill="#000000" d="M580.44+620.548L119+620.548C92.1206+620.548+69.7186+598.708+69.7186+571.267L69.7186+268.867C69.7186+266.629+70.8397+264.946+72.5194+263.828L346.359+80.7083C348.598+79.0286+351.399+79.0286+353.641+80.7083L627.481+263.268C629.16+264.389+630.281+266.628+630.281+268.307L630.281+570.707C629.719+598.711+607.879+620.551+580.437+620.551L580.44+620.548ZM82.5996+272.228L82.5996+571.268C82.5996+591.428+98.8376+607.666+118.998+607.666L580.998+607.666C601.158+607.666+617.396+591.428+617.396+571.268L617.4+272.228L349.72+93.5884L82.5996+272.228Z"/>
<path opacity="1" d="M350+458.148C343.84+458.148+337.68+456.469+332.641+453.668L264.321+418.949C260.962+417.269+259.841+413.347+261.52+410.551C263.2+407.191+267.122+406.07+269.919+407.75L338.239+442.469C345.52+446.391+354.477+446.391+361.759+442.469L430.079+407.75C433.438+406.07+436.797+407.191+438.477+410.551C440.157+413.91+439.036+417.269+435.676+418.949L367.356+453.668C362.321+456.469+356.161+458.148+350.001+458.148L350+458.148Z" fill="#000000"/>
<path opacity="1" fill="#000000" d="M503.44+336.628C500.081+336.628+497.28+333.828+497.28+330.468L497.28+261.03L202.72+261.03L202.72+330.471C202.72+333.831+199.919+336.631+196.56+336.631C193.2+336.631+190.399+333.831+190.399+330.471L190.399+254.869C190.399+251.51+193.2+248.709+196.56+248.709L503.44+248.709C506.799+248.709+509.6+251.51+509.6+254.869L509.6+330.471C509.604+333.831+506.803+336.627+503.444+336.627L503.44+336.628Z"/>
<path opacity="1" d="M277.2+326.548C277.2+331.189+273.438+334.947+268.802+334.947C264.161+334.947+260.399+331.189+260.399+326.548C260.399+321.908+264.161+318.146+268.802+318.146C273.438+318.146+277.2+321.908+277.2+326.548" fill="#000000"/>
<path d="M439.6+326.548C439.6+331.189+435.838+334.947+431.198+334.947C426.561+334.947+422.799+331.189+422.799+326.548C422.799+321.908+426.561+318.146+431.198+318.146C435.838+318.146+439.6+321.908+439.6+326.548" opacity="1" fill="#000000"/>
<path opacity="1" d="M350+375.828C335.441+375.828+323.121+364.066+323.121+348.949C323.121+345.59+325.922+342.789+329.281+342.789C332.641+342.789+335.441+345.59+335.441+348.949C335.441+356.789+341.602+362.949+349.441+362.949C357.281+362.949+363.441+356.789+363.441+348.949C363.441+343.348+360.641+338.871+347.203+334.39C341.043+332.152+322.562+326.551+322.562+308.07C322.562+293.511+334.324+281.191+349.441+281.191C364+281.191+376.32+292.953+376.32+308.07C376.32+311.43+373.52+314.231+370.16+314.231C366.801+314.231+364+311.43+364+308.07C364+300.231+357.84+294.07+350+294.07C342.16+294.07+336+300.231+336+308.07C336+312.551+337.68+317.59+352.238+322.629C364+326.551+376.879+332.707+376.879+348.949C376.879+364.066+364.559+375.828+350+375.828Z" fill="#000000"/>
<path d="M350+294.628C346.641+294.628+343.84+291.828+343.84+288.468L343.84+276.706C343.84+273.347+346.641+270.546+350+270.546C353.359+270.546+356.16+273.347+356.16+276.706L356.16+288.468C356.16+291.832+353.359+294.628+350+294.628Z" opacity="1" fill="#000000"/>
<path fill="#000000" opacity="1" d="M350+387.588C346.641+387.588+343.84+384.788+343.84+381.428L343.84+369.666C343.84+366.307+346.641+363.506+350+363.506C353.359+363.506+356.16+366.307+356.16+369.666L356.16+381.428C356.16+384.788+353.359+387.588+350+387.588Z"/>
</g>
</g>
</svg>
