<?xml version="1.0" encoding="UTF-8" standalone="no"?> <!-- Created with Vectornator for iOS (http://vectornator.io/) --><!DOCTYPE svg PUBLIC "-//W3C//DTD SVG 1.1//EN" "http://www.w3.org/Graphics/SVG/1.1/DTD/svg11.dtd">
<svg version="1.1" xmlns="http://www.w3.org/2000/svg" style="fill-rule:nonzero;clip-rule:evenodd;stroke-linecap:round;stroke-linejoin:round;" xmlns:vectornator="http://vectornator.io" width="100%" xml:space="preserve" viewBox="0 0 700 700" height="100%" xmlns:xlink="http://www.w3.org/1999/xlink">
<metadata>
<vectornator:setting value="true" key="WDGuidesVisible"/>
<vectornator:setting key="WDSnapToPoints" value="false"/>
<vectornator:setting key="IsTimeLapseWatermarkDisabled" value="false"/>
<vectornator:setting value="true" key="VNSnapToGuides"/>
<vectornator:setting key="WDUnits" value="Points"/>
<vectornator:setting key="WDSnapToGrid" value="false"/>
<vectornator:setting key="VNDimensionsVisible" value="true"/>
<vectornator:setting value="false" key="UndoHistoryDisabled"/>
<vectornator:setting key="WDRulersVisible" value="true"/>
<vectornator:setting value="false" key="WDDynamicGuides"/>
<vectornator:setting key="WDOutlineMode" value="false"/>
<vectornator:setting key="WDSnapToEdges" value="false"/>
<vectornator:setting value="false" key="WDDisplayWhiteBackground"/>
<vectornator:setting value="false" key="VNPencilOnly"/>
<vectornator:setting value="false" key="WDIsolateActiveLayer"/>
<vectornator:setting value="false" key="WDCMYKEnabledKey"/>
</metadata>
<defs/>
<g vectornator:layerName="Untitled" id="Untitled">
<g opacity="1">
<path d="M547.808+96.9589C545.726+95.669+543.126+95.5508+540.945+96.6487L509.322+112.463L459.792+79.4418C457.419+77.8614+454.332+77.8614+451.964+79.4418L402.937+112.124L353.914+79.4418C351.541+77.8614+348.454+77.8614+346.086+79.4418L296.556+112.463L264.932+96.6487C262.741+95.5557+260.142+95.6788+258.069+96.9589C255.982+98.2439+254.711+100.514+254.711+102.961L254.711+537.041L155.899+537.041C154.008+537.041+152.196+537.8+150.872+539.144C149.552+540.488+148.814+542.31+148.838+544.2C148.853+544.973+150.763+621.744+226.481+621.744L473.519+621.744C550.271+621.744+551.162+544.879+551.162+544.101L551.162+102.961C551.162+100.514+549.892+98.2447+547.809+96.9598L547.808+96.9589ZM226.483+607.622C176.682+607.622+165.914+567.845+163.591+551.154L261.774+551.159L396.107+551.159C398.022+580.464+411.857+597.597+427.317+607.626L226.483+607.622ZM537.045+544.085C537.035+546.68+536.055+607.622+473.523+607.622C470.933+607.622+410.002+606.898+410.002+544.1C410.002+540.201+406.846+537.04+402.941+537.04L268.835+537.04L268.835+114.378L293.911+126.918C296.185+128.046+298.878+127.878+300.981+126.475L350.004+93.7928L399.027+126.475C401.4+128.055+404.487+128.055+406.855+126.475L455.878+93.7928L504.902+126.475C507.004+127.878+509.697+128.046+511.972+126.918L537.047+114.378L537.045+544.085Z" opacity="1" fill="#000000"/>
<path opacity="1" fill="#000000" d="M402.937+339.411C455.48+339.411+498.225+296.666+498.225+244.123C498.225+191.579+455.485+148.834+402.937+148.834C350.393+148.834+307.648+191.579+307.648+244.123C307.648+296.666+350.393+339.411+402.937+339.411ZM402.937+162.956C447.691+162.956+484.104+199.365+484.104+244.123C484.104+288.881+447.69+325.29+402.937+325.29C358.184+325.29+321.77+288.881+321.77+244.123C321.77+199.365+358.184+162.956+402.937+162.956Z"/>
<path opacity="1" d="M367.646+272.358C363.746+272.358+360.585+275.519+360.585+279.419C360.585+283.318+363.741+286.479+367.646+286.479L395.876+286.479L395.876+297.064C395.876+300.964+399.032+304.124+402.936+304.124C406.836+304.124+409.996+300.964+409.996+297.064L409.996+286.479L420.582+286.479C438.71+286.479+445.288+271.703+445.288+261.772C445.288+240.203+426.628+237.466+409.997+237.12L409.997+215.895L438.227+215.895C442.127+215.895+445.288+212.734+445.288+208.835C445.288+204.936+442.132+201.775+438.227+201.775L409.997+201.775L409.997+191.189C409.997+187.29+406.841+184.129+402.937+184.129C399.037+184.129+395.876+187.29+395.876+191.189L395.876+201.775L385.291+201.775C367.163+201.775+360.585+216.55+360.585+226.481C360.585+248.05+379.245+250.788+395.876+251.133L395.876+272.358L367.646+272.358ZM409.997+251.272C426.984+251.72+431.173+254.132+431.173+261.774C431.173+263.541+430.661+272.359+420.588+272.359L410.003+272.359L409.997+251.272ZM374.706+226.482C374.706+224.715+375.218+215.897+385.292+215.897L395.877+215.897L395.877+236.984C378.896+236.535+374.706+234.123+374.706+226.482L374.706+226.482Z" fill="#000000"/>
<path opacity="1" fill="#000000" d="M297.063+360.586C293.164+360.586+290.003+363.747+290.003+367.646C290.003+371.546+293.159+374.707+297.063+374.707L508.81+374.707C512.71+374.707+515.87+371.546+515.87+367.646C515.87+363.747+512.714+360.586+508.81+360.586L297.063+360.586Z"/>
<path d="M508.81+395.877L297.063+395.877C293.164+395.877+290.003+399.038+290.003+402.938C290.003+406.837+293.159+409.998+297.063+409.998L508.81+409.998C512.71+409.998+515.87+406.837+515.87+402.938C515.87+399.038+512.71+395.877+508.81+395.877Z" opacity="1" fill="#000000"/>
<path d="M508.81+431.168L297.063+431.168C293.164+431.168+290.003+434.329+290.003+438.229C290.003+442.128+293.159+445.289+297.063+445.289L508.81+445.289C512.71+445.289+515.87+442.128+515.87+438.229C515.87+434.329+512.71+431.168+508.81+431.168Z" opacity="1" fill="#000000"/>
<path d="M508.81+466.46L297.063+466.46C293.164+466.46+290.003+469.62+290.003+473.52C290.003+477.419+293.159+480.58+297.063+480.58L508.81+480.58C512.71+480.58+515.87+477.419+515.87+473.52C515.87+469.62+512.71+466.46+508.81+466.46Z" opacity="1" fill="#000000"/>
<path opacity="1" fill="#000000" d="M508.81+501.751L297.063+501.751C293.164+501.751+290.003+504.911+290.003+508.811C290.003+512.71+293.159+515.871+297.063+515.871L508.81+515.871C512.71+515.871+515.87+512.71+515.87+508.811C515.87+504.911+512.71+501.751+508.81+501.751Z"/>
</g>
</g>
</svg>
