<?xml version="1.0" encoding="UTF-8" standalone="no"?> <!-- Created with Vectornator for iOS (http://vectornator.io/) --><!DOCTYPE svg PUBLIC "-//W3C//DTD SVG 1.1//EN" "http://www.w3.org/Graphics/SVG/1.1/DTD/svg11.dtd">
<svg width="100%" style="fill-rule:nonzero;clip-rule:evenodd;stroke-linecap:round;stroke-linejoin:round;" xmlns:xlink="http://www.w3.org/1999/xlink" xmlns:vectornator="http://vectornator.io" version="1.1" xmlns="http://www.w3.org/2000/svg" viewBox="0 0 700 700" xml:space="preserve" height="100%">
<metadata>
<vectornator:setting value="true" key="WDRulersVisible"/>
<vectornator:setting value="false" key="WDSnapToGrid"/>
<vectornator:setting value="false" key="WDOutlineMode"/>
<vectornator:setting value="false" key="UndoHistoryDisabled"/>
<vectornator:setting value="true" key="VNDimensionsVisible"/>
<vectornator:setting value="true" key="WDGuidesVisible"/>
<vectornator:setting key="WDSnapToEdges" value="false"/>
<vectornator:setting key="WDIsolateActiveLayer" value="false"/>
<vectornator:setting key="VNPencilOnly" value="false"/>
<vectornator:setting value="false" key="WDCMYKEnabledKey"/>
<vectornator:setting key="IsTimeLapseWatermarkDisabled" value="false"/>
<vectornator:setting key="VNSnapToGuides" value="true"/>
<vectornator:setting key="WDDynamicGuides" value="false"/>
<vectornator:setting key="WDDisplayWhiteBackground" value="false"/>
<vectornator:setting key="WDUnits" value="Points"/>
<vectornator:setting key="WDSnapToPoints" value="false"/>
</metadata>
<defs/>
<g id="Untitled" vectornator:layerName="Untitled">
<g opacity="1">
<path d="M548.83+77.7498L151.165+77.7498C147.828+77.7498+145.128+80.4555+145.128+83.7872L145.128+193.677C145.122+195.28+145.759+196.822+146.892+197.96C148.025+199.093+149.561+199.735+151.165+199.735L215.802+199.735L215.802+447.928C215.808+451.264+218.519+453.965+221.855+453.965L278.044+453.965L278.044+503.812C278.019+524.557+285.66+544.578+299.498+560.031L309.043+570.709C314.232+576.503+317.098+584.005+317.098+591.786L317.098+616.251C317.259+619.474+319.918+622.009+323.146+622.009C326.374+622.009+329.039+619.474+329.194+616.251L329.194+591.723C329.215+580.978+325.272+570.606+318.128+562.581L308.583+551.903C296.736+538.685+290.191+521.561+290.202+503.812L290.202+453.965L457.01+453.965C443.973+463.784+428.297+479.563+425.897+500.205L425.892+500.205C425.504+503.526+427.873+506.532+431.195+506.925L431.903+506.925C434.971+506.925+437.548+504.628+437.899+501.581C441.303+472.61+480.358+453.531+480.746+453.328L480.876+453.328L481.165+453.168L481.398+453.023L481.672+452.837L481.89+452.676L482.138+452.474L482.324+452.298L482.557+452.05L482.717+451.874L482.966+451.569L483.069+451.44C483.157+451.31+483.245+451.181+483.318+451.047L483.312+451.057C483.318+451.026+483.318+450.995+483.312+450.969C483.4+450.824+483.478+450.674+483.545+450.519C483.623+450.358+483.69+450.193+483.747+450.027C483.747+449.851+483.861+449.681+483.907+449.52L483.907+449.448L483.995+448.972L483.995+448.967C484+448.931+484+448.889+483.995+448.853C484.011+448.703+484.011+448.553+483.995+448.403C484.006+448.351+484.006+448.299+483.995+448.243L483.995+448.025L483.995+332.751L487.384+325.653C490.328+319.382+493.768+313.355+497.669+307.634C501.601+301.674+506.495+296.413+512.155+292.062C513.521+291.058+515.331+290.893+516.852+291.638C518.373+292.388+519.356+293.914+519.398+295.611L523.123+462.578C523.412+475.372+521.353+488.114+517.054+500.169L483.825+574.915L483.82+574.915C481.233+580.715+479.904+587+479.909+593.354L479.909+616.199C479.909+619.541+482.62+622.252+485.967+622.252C489.309+622.252+492.02+619.541+492.02+616.199L492.02+593.354C492.02+588.687+493.008+584.078+494.917+579.825L528.234+504.676L528.234+504.67C533.143+491.101+535.497+476.744+535.187+462.316L531.462+295.349L531.467+295.349C531.332+289.094+527.701+283.439+522.067+280.708C516.438+277.976+509.749+278.628+504.752+282.399C498.181+287.552+492.496+293.75+487.922+300.739C486.65+302.566+485.418+304.475+484.198+306.534L484.198+199.733L548.835+199.733C550.439+199.733+551.975+199.091+553.108+197.958C554.241+196.82+554.877+195.278+554.872+193.675L554.872+83.7851C554.872+82.1865+554.236+80.65+553.103+79.5169C551.97+78.3839+550.434+77.7477+548.835+77.7477L548.83+77.7498ZM472.056+379.051C460.001+384.235+425.091+402.342+414.314+441.95L285.651+441.944C274.875+402.269+239.908+384.162+227.915+378.962L227.915+138.981L472.082+138.981L472.056+379.051ZM472.056+392.482L472.056+441.951L426.99+441.946C436.013+414.019+459.598+398.768+472.082+392.405L472.056+392.482ZM227.889+392.482C240.378+398.84+263.958+414.096+272.981+441.951L227.921+441.946L227.889+392.482ZM542.779+187.637L484.2+187.637L484.2+138.976L497.583+138.976C499.239+139.058+500.858+138.458+502.058+137.315C503.259+136.172+503.936+134.588+503.936+132.928C503.936+131.272+503.259+129.689+502.058+128.546C500.858+127.403+499.239+126.802+497.583+126.88L202.414+126.88C200.759+126.802+199.139+127.403+197.939+128.546C196.739+129.689+196.061+131.272+196.061+132.928C196.061+134.588+196.739+136.171+197.939+137.315C199.139+138.458+200.759+139.058+202.414+138.976L215.813+138.976L215.813+187.631L157.235+187.637L157.235+89.8428L542.781+89.8428L542.779+187.637Z" opacity="1" fill="#000000"/>
<path fill="#000000" d="M350.156+331.808C325.256+331.141+320.751+315.874+320.59+315.223C319.685+312.103+316.478+310.256+313.327+311.032C310.171+311.813+308.195+314.938+308.842+318.12C309.074+319.062+314.636+340.195+343.938+343.485L343.943+362.591C343.943+365.933+346.654+368.644+349.996+368.644C353.338+368.644+356.049+365.933+356.049+362.591L356.049+343.542C372.547+341.152+387.395+327.825+390.67+311.456C392.595+301.823+392.698+277.746+352.17+262.132C329.676+253.441+318.387+240.476+321.186+226.498C323.679+214.04+337.12+203.522+349.826+203.755C374.637+204.423+379.216+219.689+379.418+220.414C380.324+223.549+383.552+225.406+386.718+224.604C389.884+223.802+391.845+220.636+391.152+217.444C390.919+216.487+385.357+195.369+356.055+192.063L356.05+172.973C356.05+169.631+353.339+166.92+349.997+166.92C346.655+166.92+343.944+169.631+343.944+172.973L343.944+192.095C327.446+194.485+312.598+207.828+309.323+224.196C307.398+233.813+307.295+257.89+347.813+273.448C370.306+282.139+381.606+295.104+378.812+309.098C376.318+321.54+363.033+332.286+350.155+331.809L350.156+331.808Z" opacity="1"/>
</g>
</g>
</svg>
